# xmcd CD database file
#
# Track frame offsets:
#	182
#	15855
#	35542
#	48042
#	61472
#	74222
#	88685
#	99210
#	109630
#	122330
#	134742
#	146277
#	156632
#	167200
#
# Disc length: 2365 seconds
#
# Revision: 2
# Processed by: cddbd v1.4b41PL1 Copyright (c) Steve Scherf et al.
# Submitted via: Feurio! 1.52 - http://www.feurio.com
#
DISCID=bc093b0e
DTITLE=Alexis Korner´s Blues Incorporated - ...Plus
DYEAR=1900
DGENRE=
TTITLE0=Blue Mink
TTITLE1=Rainy Tuesday
TTITLE2=Yogi
TTITLE3=Sappho
TTITLE4=Navy Blue
TTITLE5=Royal Dooji
TTITLE6=Preachin´ The Blues
TTITLE7=The Captain´s Tiger
TTITLE8=A Little Bit Groovy
TTITLE9=Anything For Now
TTITLE10=Chris Trundle´s Habit
TTITLE11=Trundlin´
TTITLE12=Taboo Man
TTITLE13=See See Rider
EXTD=
EXTT0=
EXTT1=
EXTT2=
EXTT3=
EXTT4=
EXTT5=
EXTT6=
EXTT7=
EXTT8=
EXTT9=
EXTT10=
EXTT11=
EXTT12=
EXTT13=
PLAYORDER=
